# xmcd CD database file
#
# Track frame offsets:
#	150
#	10116
#	28131
#	40219
#	57230
#	74310
#	89394
#	107460
#	122778
#	141369
#
# Disc length: 2106 seconds
#
# Revision: 0
# Processed by: cddbd v1.5.1PL0 Copyright (c) Steve Scherf et al.
# Submitted via: CDex 1.51
#
DISCID=8508380a
DTITLE=Various Artist - The Ultimate Reggae Album
DYEAR=1900
DGENRE=Reggae
TTITLE0=Bob Marley and The Wailers - The Sun Is Shining
TTITLE1=Phillip Leo and CJ Lewis - Young Gifted and Black
TTITLE2=Desmond Dekker - You Can Get It If You Really Want
TTITLE3=Barrington Levy - Here I Come
TTITLE4=Clint Eastwood and General Saint - Another One Bites Dust
TTITLE5=Winsome - Am I The Same Girl
TTITLE6=Tenor Fly - The Bright Side Of Life
TTITLE7=Dennis Brown - Slow Down Woman
TTITLE8=Nerious Joseph and Tenor Fly - My Girl
TTITLE9=Janet Lee Davis - Baby I've Been Missing You
EXTD=
EXTT0=
EXTT1=
EXTT2=
EXTT3=
EXTT4=
EXTT5=
EXTT6=
EXTT7=
EXTT8=
EXTT9=
PLAYORDER=
